<?xml version="1.0" encoding="utf-8"?>
<!-- Generator: Adobe Illustrator 28.0.0, SVG Export Plug-In . SVG Version: 6.00 Build 0)  -->
<svg version="1.1" id="Layer_1" xmlns="http://www.w3.org/2000/svg" xmlns:xlink="http://www.w3.org/1999/xlink" x="0px" y="0px"
	 viewBox="0 0 50 50" style="enable-background:new 0 0 50 50;" xml:space="preserve">
<style type="text/css">
</style>
<path class="st0" d="M45.46,22l-7.3,7.72c-0.55,0.58-0.79,1.4-0.63,2.19l2.14,10.58c0.41,2.04-1.72,3.64-3.56,2.69l-9.25-4.81
	c-0.74-0.39-1.63-0.37-2.36,0.04l-8.98,5.09c-1.77,1.01-3.93-0.45-3.67-2.47l1.41-10.83c0.1-0.78-0.17-1.56-0.74-2.1l-7.89-7.56
	c-1.47-1.41-0.7-3.9,1.31-4.23l10.19-1.67c0.83-0.14,1.53-0.68,1.86-1.45l4.19-9.55c0.84-1.9,3.51-1.99,4.46-0.14l4.96,9.59
	c0.37,0.71,1.06,1.21,1.86,1.31L44,17.85C45.99,18.12,46.84,20.53,45.46,22z"/>
</svg>
